<svg width="164" height="142" viewBox="0 0 164 142" fill="none" xmlns="http://www.w3.org/2000/svg">
<path d="M157.674 136.54C152.155 134.323 146.707 133.976 141.212 132.494C140.831 132.39 140.411 132.333 140.369 131.842L140.584 46.4135C144.09 43.3871 151.117 41.0004 148.18 35.009C147.259 33.1252 145.575 32.365 143.782 31.5105C135.523 27.5705 125.144 24.1074 116.453 20.8236C100.832 14.9172 84.9867 9.57734 69.3921 3.59772C65.6094 2.68414 63.4517 3.76533 60.3512 5.66096C47.0943 13.777 33.8469 24.2868 21.2058 33.3306C19.2304 36.3334 20.6255 38.9372 23.238 40.8541C24.0765 41.4702 27.3641 42.9008 27.4944 43.4296L27.4873 129.911C27.4423 130.279 27.2575 130.487 26.9141 130.617C25.5521 131.129 22.3688 131.405 20.6539 131.835C17.5819 132.605 5.84088 135.501 4.07866 137.472C2.45382 139.29 7.4823 138.601 8.35867 138.542C15.3436 138.088 22.3285 136.955 29.3182 136.419C60.7941 134.011 93.9897 134.186 125.52 135.98C137.034 136.637 148.491 138.081 159.999 138.723C160.897 137.408 158.647 136.925 157.671 136.533L157.674 136.54Z" fill="#D8B39C"/>
<path d="M157.69 136.54C152.171 134.323 146.724 133.976 141.229 132.494C140.847 132.39 140.428 132.333 140.385 131.842L140.601 46.4135C144.106 43.3871 151.134 41.0004 148.197 35.009C147.276 33.1252 145.591 32.365 143.798 31.5105C135.539 27.5705 125.16 24.1074 116.47 20.8236C100.849 14.9172 85.0033 9.57734 69.4087 3.59772C65.6261 2.68414 63.4683 3.76533 60.3678 5.66096C47.1109 13.777 33.8635 24.2868 21.2224 33.3306C19.247 36.3334 20.6421 38.9372 23.2547 40.8541C24.0931 41.4702 27.3807 42.9008 27.511 43.4296L27.5039 129.911C27.4589 130.279 27.2741 130.487 26.9307 130.617C25.5687 131.129 22.3854 131.405 20.6705 131.835C17.5985 132.605 5.85748 135.501 4.09526 137.472C2.47042 139.29 7.4989 138.601 8.37527 138.542C15.3602 138.088 22.3451 136.955 29.3348 136.419C60.8107 134.011 94.0063 134.186 125.537 135.98C137.05 136.637 148.507 138.081 160.016 138.723C160.914 137.408 158.664 136.925 157.688 136.533L157.69 136.54ZM41.4358 115.206C41.2653 115.412 36.2794 116.646 36.2794 116.077V101.805C36.6773 100.197 41.2274 97.2509 41.6348 101.155C41.784 102.588 41.8858 114.668 41.4358 115.209V115.206ZM41.6371 84.3497C41.5471 85.0201 41.6893 84.8998 41.1421 85.3483C40.9668 85.4923 37.2032 87.1566 36.9758 87.1778C36.7152 87.2038 36.2794 87.1282 36.2794 86.8922V72.6195C36.6063 71.4014 40.5429 68.0846 41.4595 70.8655C41.8219 71.9679 41.8408 82.8153 41.6371 84.3497ZM41.6348 55.1645C41.5661 55.6674 41.6964 55.6721 41.2795 56.0899C41.0995 56.2694 36.9663 58.3302 36.7152 58.3656C36.4855 58.3963 36.2794 58.2334 36.2794 58.1367V44.9286C36.6489 43.1581 41.1208 39.1803 41.6348 43.4272C41.9001 45.625 41.9308 53.0163 41.6348 55.1669V55.1645ZM55.742 110.929C55.6473 111.203 50.3701 112.425 50.0953 112.331C49.7329 112.206 49.7827 111.904 49.7377 111.613C49.0981 107.546 50.2209 101.842 49.7992 97.5932C50.2303 95.7778 53.7311 93.4903 55.2375 94.9516C56.4005 96.0776 55.3772 108.618 55.7444 110.929H55.742ZM55.7444 78.8092C55.678 79.279 55.8178 79.3498 55.3938 79.7369C54.7709 80.3035 50.8035 81.3587 49.7471 81.6727V66.8665C49.7471 65.9104 52.1749 63.3278 53.1816 63.0469C55.3535 62.4402 55.5738 63.8495 55.7396 65.5823C56.0073 68.3466 56.1115 76.177 55.7467 78.8092H55.7444ZM49.7471 52.0626V37.2564C49.7471 36.2035 55.1641 30.1909 55.742 35.5449C55.9007 37.0156 56.0025 49.0976 55.5193 49.6146C55.067 50.0985 50.6851 51.633 49.7471 52.065V52.0626ZM124.272 119.88C124.22 120.667 123.618 120.438 123.388 120.02C123.052 119.404 123.497 119.099 123.497 118.849C123.497 117.824 123.242 111.566 123.497 111.285C123.521 111.259 124 111.205 124.161 111.41C124.421 111.745 124.331 119.016 124.272 119.88ZM135.897 131.736C134.888 131.54 128.58 131.278 128.294 130.898C127.455 129.788 129.111 112.102 128.268 109.406C128.111 108.865 127.995 108.575 127.5 108.254C127.022 107.945 120.937 106.148 120.392 106.17C119.433 106.207 119.134 106.689 119.004 107.555C118.156 113.228 119.243 122.078 119.002 128.225C118.988 128.58 118.983 129.878 118.654 130.001L78.5064 127.682L66.834 128.025L66.8482 20.3232C67.3906 19.7755 79.2572 24.02 80.8536 24.5819C94.6103 29.4165 108.433 34.551 122.053 39.7658C126.74 41.5599 131.404 43.4603 136.077 45.2804L135.895 131.74L135.897 131.736ZM138.891 40.2521C121.541 33.3329 104.035 26.6852 86.5027 20.2264C79.0724 17.488 67.6583 11.5249 60.292 15.1722L27.7218 36.8291C27.0444 37.2635 24.9387 36.2059 25.5995 35.5638C36.0118 29.0388 45.7585 21.4469 56.0949 14.8251C57.9613 13.6283 63.5228 9.80633 65.3016 9.5136C68.8615 8.92579 72.4333 10.4579 75.7233 11.5839C91.2351 16.8931 107.133 23.038 122.481 28.8972C128.116 31.0478 134.383 33.2645 139.855 35.6582C140.234 35.8234 142.022 36.5222 142.103 36.6143C143.104 37.7356 140.016 40.3749 138.893 40.2545L138.891 40.2521Z" fill="#302B2C"/>
<path d="M90.2284 98.7427C89.8518 98.4831 82.1516 96.2782 81.4362 96.2074C80.4628 96.1082 79.8446 96.2121 79.6646 97.3192C78.9753 101.58 80.0791 107.784 79.4585 112.248C79.5817 113.15 79.8659 113.603 80.6594 114.031C81.4836 114.472 88.767 116.106 89.8542 116.174C90.181 116.195 90.7234 116.148 90.9532 115.917C91.1971 115.674 91.19 115.142 91.2256 114.807C91.5595 111.616 91.5193 104.6 91.2256 101.368C91.145 100.475 91.0313 99.3022 90.226 98.7427H90.2284ZM85.7399 111.904C85.5031 111.986 84.1648 111.606 84.1648 111.391C84.1648 109.807 83.8593 102.912 84.1648 102.017C84.378 101.396 86.0147 102.017 86.0976 102.267C86.4245 103.235 85.8939 107.827 85.8655 109.271C85.8513 109.911 86.4837 111.644 85.7423 111.904H85.7399Z" fill="#302B2C"/>
<path d="M80.3255 83.0489C81.0668 83.6792 89.8566 85.9549 90.5743 85.6196C91.2635 85.2986 91.1806 83.9459 91.2233 83.2849C91.5217 78.7524 91.093 73.8634 90.8917 69.3238C90.5316 68.3984 81.5737 65.509 80.477 65.7309C79.6457 65.9008 79.5083 66.5618 79.4443 67.2889C79.1625 70.4853 79.0985 77.8152 79.4538 80.9337C79.5462 81.741 79.6788 82.4965 80.3255 83.0465V83.0489ZM84.1649 71.6609C84.2336 71.5854 85.9295 72.0433 86.0337 72.1378C86.6235 72.6713 86.0171 79.9375 86.3014 81.2477C86.1711 81.3751 84.397 81.1768 84.1602 80.929C83.7173 80.4615 84.4586 72.9711 84.1625 71.6609H84.1649Z" fill="#302B2C"/>
<path d="M79.2382 50.684C79.2998 51.3237 79.4751 52.3978 79.9535 52.8463C80.3799 53.2453 88.6509 56.1891 89.4539 56.2741C90.2852 56.3614 90.9342 56.4039 91.01 55.3723L90.8371 40.186C90.6405 39.7941 90.3563 39.5557 89.9868 39.3291C87.6774 37.9174 83.1629 37.1997 80.6049 35.873C79.9677 35.8541 79.4609 36.4301 79.4443 37.0321C79.9606 41.3427 78.8284 46.5079 79.2335 50.684H79.2382ZM84.1648 42.3696C84.1648 41.8219 86.3037 42.8394 86.3037 43.0094C86.3037 44.4565 86.5855 50.7194 86.3037 51.5314C86.1544 51.9658 84.1648 51.8903 84.1648 50.6792V42.372V42.3696Z" fill="#302B2C"/>
<path d="M110.15 103.389C109.689 103.164 103.071 101.425 102.699 101.514C102.249 101.623 101.901 102.416 101.903 102.865L102.069 118.046C102.654 119.127 110.162 120.431 110.747 120.204C111.126 120.058 111.283 117.182 111.323 116.509C111.439 114.526 111.645 105.867 111.219 104.456C111.069 103.96 110.605 103.608 110.153 103.389H110.15ZM107.036 115.438C106.943 115.808 106.598 116.221 106.185 115.971C105.835 115.759 106.555 108.884 105.987 107.796C106.06 107.407 106.96 107.366 107.036 107.449C107.308 107.742 107.14 115.01 107.036 115.438Z" fill="#302B2C"/>
<path d="M109.935 74.8456C109.137 74.4797 103.232 72.813 102.704 72.9783C102.225 73.127 102.18 73.4622 102.112 73.8871C101.671 76.6987 102.088 82.2935 102.14 85.3978C102.159 86.6042 101.467 88.8987 102.926 89.7132C103.405 89.9799 110.342 91.9676 110.736 91.8709C111.188 91.7599 111.266 91.3326 111.325 90.9502C111.65 88.8515 111.754 79.7487 111.538 77.5108C111.387 75.9504 111.441 75.5373 109.937 74.8456H109.935ZM107.251 87.4257C106.943 87.5437 105.968 87.0881 105.968 86.8922V79.0098C105.968 78.5589 106.951 78.7714 107.251 78.9036V87.4257Z" fill="#302B2C"/>
<path d="M110.653 46.6496C110.293 46.3899 103.912 44.0623 103.457 44.0104C103.18 43.9797 102.794 44.0316 102.602 44.2323C102.372 44.4707 102.149 47.1029 102.114 47.686C102.005 49.4305 101.868 58.8189 102.284 59.8883C102.431 60.2684 102.791 60.5423 103.142 60.7382C103.845 61.1324 110.648 63.2688 111.098 63.0422C111.546 62.8156 111.493 62.3859 111.541 61.9823C111.872 59.1967 111.849 51.3497 111.536 48.5405C111.441 47.693 111.392 47.1808 110.653 46.6496ZM107.678 58.7717C107.678 59.1022 106.181 59.3997 106.181 57.9195C106.181 56.8171 105.918 50.0325 106.181 49.7185C106.306 49.5674 107.678 50.3276 107.678 50.4645V58.7717Z" fill="#302B2C"/>
<path d="M119.426 52.3718C119.272 53.7386 119.288 65.162 119.577 65.8584C119.741 66.2526 126.996 69.2696 127.425 69.2625C128.071 69.2554 128.135 68.6535 128.199 68.1506C128.398 66.5949 128.566 55.8326 128.268 54.6593C128.185 54.3359 127.723 53.3845 127.488 53.198C127.211 52.9761 121.181 50.776 120.816 50.7689C119.701 50.7453 119.53 51.4346 119.423 52.3742L119.426 52.3718ZM123.497 56.3212C123.497 56.2669 124.386 56.3566 124.566 56.3212V65.0558C124.3 65.1242 123.497 65.0156 123.497 64.7371V56.3212Z" fill="#302B2C"/>
<path d="M120.238 78.2993C119.433 78.4481 119.317 79.1704 119.225 79.8645L119.206 93.0867C119.431 94.4205 127.145 96.4743 127.557 96.2783C127.811 96.1579 127.922 95.8794 127.979 95.6197C128.213 94.5692 128.182 90.2657 128.209 88.8186C128.237 87.2605 128.452 82.1803 127.822 81.092C127.484 80.5066 120.963 78.1671 120.238 78.2993ZM124.566 92.5366C123.128 92.2345 123.282 92.2604 123.282 91.1509V83.9083C123.282 83.4338 124.26 83.7903 124.566 83.8021V92.5366Z" fill="#302B2C"/>
</svg>
