<svg width="200" height="37" viewBox="0 0 200 37" fill="none" xmlns="http://www.w3.org/2000/svg">
<path d="M18.63 12.098L5.93399 35.374H10.074C11.3007 35.374 12.3893 35.1287 13.34 34.638C14.2907 34.1473 15.0727 33.3347 15.686 32.2C16.2993 31.0653 16.6673 29.5627 16.79 27.692H17.848C17.848 29.7467 17.8633 31.464 17.894 32.844C17.9247 34.224 17.9707 35.3587 18.032 36.248C16.652 36.1867 15.226 36.1407 13.754 36.11C12.282 36.0793 10.8253 36.064 9.38399 36.064C7.81999 36.064 6.22533 36.0793 4.59999 36.11C3.00533 36.1713 1.47199 36.2327 -5.7593e-06 36.294L12.696 13.018H8.46399C7.14533 13.018 6.01066 13.2787 5.05999 13.8C4.10933 14.2907 3.35799 15.1033 2.80599 16.238C2.28466 17.342 1.94733 18.8293 1.79399 20.7H0.781994C0.781994 18.6147 0.766661 16.8973 0.735994 15.548C0.705328 14.1987 0.659328 13.064 0.597994 12.144C1.94733 12.2053 3.35799 12.2513 4.82999 12.282C6.30199 12.3127 7.77399 12.328 9.24599 12.328C10.7793 12.328 12.3433 12.3127 13.938 12.282C15.5633 12.2207 17.1273 12.1593 18.63 12.098ZM31.078 11.684C33.1327 11.684 34.9574 12.1133 36.552 12.972C38.1467 13.8307 39.4194 15.18 40.37 17.02C41.3207 18.86 41.796 21.2673 41.796 24.242C41.796 27.2167 41.3207 29.624 40.37 31.464C39.4194 33.2733 38.1467 34.6073 36.552 35.466C34.9574 36.294 33.1327 36.708 31.078 36.708C29.054 36.708 27.2294 36.294 25.604 35.466C23.9787 34.6073 22.6907 33.2733 21.74 31.464C20.82 29.624 20.36 27.2167 20.36 24.242C20.36 21.2673 20.82 18.86 21.74 17.02C22.6907 15.18 23.9787 13.8307 25.604 12.972C27.2294 12.1133 29.054 11.684 31.078 11.684ZM31.078 12.604C29.4834 12.604 28.18 13.524 27.168 15.364C26.156 17.1733 25.65 20.1327 25.65 24.242C25.65 28.3513 26.156 31.3107 27.168 33.12C28.18 34.8987 29.4834 35.788 31.078 35.788C32.642 35.788 33.93 34.8987 34.942 33.12C35.9847 31.3107 36.506 28.3513 36.506 24.242C36.506 20.1327 35.9847 17.1733 34.942 15.364C33.93 13.524 32.642 12.604 31.078 12.604ZM62.2527 12.098L49.5567 35.374H53.6967C54.9234 35.374 56.0121 35.1287 56.9627 34.638C57.9134 34.1473 58.6954 33.3347 59.3087 32.2C59.9221 31.0653 60.2901 29.5627 60.4127 27.692H61.4707C61.4707 29.7467 61.4861 31.464 61.5167 32.844C61.5474 34.224 61.5934 35.3587 61.6547 36.248C60.2747 36.1867 58.8487 36.1407 57.3767 36.11C55.9047 36.0793 54.4481 36.064 53.0067 36.064C51.4427 36.064 49.8481 36.0793 48.2227 36.11C46.6281 36.1713 45.0947 36.2327 43.6227 36.294L56.3187 13.018H52.0867C50.7681 13.018 49.6334 13.2787 48.6827 13.8C47.7321 14.2907 46.9807 15.1033 46.4287 16.238C45.9074 17.342 45.5701 18.8293 45.4167 20.7H44.4047C44.4047 18.6147 44.3894 16.8973 44.3587 15.548C44.3281 14.1987 44.2821 13.064 44.2207 12.144C45.5701 12.2053 46.9807 12.2513 48.4527 12.282C49.9247 12.3127 51.3967 12.328 52.8687 12.328C54.4021 12.328 55.9661 12.3127 57.5607 12.282C59.1861 12.2207 60.7501 12.1593 62.2527 12.098ZM74.7008 11.684C76.7554 11.684 78.5801 12.1133 80.1748 12.972C81.7694 13.8307 83.0421 15.18 83.9928 17.02C84.9434 18.86 85.4188 21.2673 85.4188 24.242C85.4188 27.2167 84.9434 29.624 83.9928 31.464C83.0421 33.2733 81.7694 34.6073 80.1748 35.466C78.5801 36.294 76.7554 36.708 74.7008 36.708C72.6768 36.708 70.8521 36.294 69.2268 35.466C67.6014 34.6073 66.3134 33.2733 65.3628 31.464C64.4428 29.624 63.9828 27.2167 63.9828 24.242C63.9828 21.2673 64.4428 18.86 65.3628 17.02C66.3134 15.18 67.6014 13.8307 69.2268 12.972C70.8521 12.1133 72.6768 11.684 74.7008 11.684ZM74.7008 12.604C73.1061 12.604 71.8028 13.524 70.7908 15.364C69.7788 17.1733 69.2728 20.1327 69.2728 24.242C69.2728 28.3513 69.7788 31.3107 70.7908 33.12C71.8028 34.8987 73.1061 35.788 74.7008 35.788C76.2648 35.788 77.5528 34.8987 78.5648 33.12C79.6074 31.3107 80.1288 28.3513 80.1288 24.242C80.1288 20.1327 79.6074 17.1733 78.5648 15.364C77.5528 13.524 76.2648 12.604 74.7008 12.604ZM101.229 11.684C103.683 11.684 105.722 12.7113 107.347 14.766C109.003 16.79 109.831 19.872 109.831 24.012C109.831 26.9253 109.356 29.3173 108.405 31.188C107.455 33.0587 106.182 34.454 104.587 35.374C103.023 36.2633 101.321 36.708 99.4815 36.708C98.0401 36.708 96.6601 36.3553 95.3415 35.65C94.0228 34.914 93.0108 33.81 92.3055 32.338L93.1335 32.568C93.8081 33.6107 94.6515 34.3927 95.6635 34.914C96.6755 35.4353 97.7028 35.696 98.7455 35.696C100.677 35.696 102.119 34.7607 103.069 32.89C104.051 31.0193 104.541 28.1367 104.541 24.242C104.541 21.6967 104.342 19.6113 103.943 17.986C103.575 16.3607 103.008 15.18 102.241 14.444C101.505 13.6773 100.57 13.294 99.4355 13.294C98.1168 13.294 96.9055 13.8613 95.8015 14.996C94.6975 16.1307 94.0381 17.7713 93.8235 19.918L93.3635 18.952C93.7928 16.652 94.7128 14.8733 96.1235 13.616C97.5648 12.328 99.2668 11.684 101.229 11.684ZM94.0995 0.045993V34.178C93.5781 34.362 93.0415 34.592 92.4895 34.868C91.9375 35.144 91.4161 35.4507 90.9255 35.788C90.4348 36.0947 89.9748 36.432 89.5455 36.8L88.8095 36.432C88.9321 36.0027 89.0088 35.5733 89.0395 35.144C89.1008 34.7147 89.1315 34.27 89.1315 33.81V5.56599C89.1315 4.18599 88.8861 3.17399 88.3955 2.52999C87.9355 1.85533 87.0768 1.51799 85.8195 1.51799V0.551995C86.8008 0.643993 87.7515 0.689993 88.6715 0.689993C89.6835 0.689993 90.6495 0.643993 91.5695 0.551995C92.4895 0.429328 93.3328 0.260661 94.0995 0.045993ZM122.679 11.684C125.377 11.684 127.493 12.4967 129.027 14.122C130.56 15.7473 131.327 18.3233 131.327 21.85H115.457L115.365 20.976H126.451C126.481 19.4733 126.359 18.0933 126.083 16.836C125.807 15.548 125.377 14.5207 124.795 13.754C124.212 12.9873 123.445 12.604 122.495 12.604C121.176 12.604 120.026 13.3093 119.045 14.72C118.094 16.1 117.511 18.3233 117.297 21.39L117.435 21.62C117.404 22.0493 117.373 22.5247 117.343 23.046C117.312 23.5367 117.297 24.0273 117.297 24.518C117.297 26.634 117.619 28.4127 118.263 29.854C118.907 31.2953 119.75 32.384 120.793 33.12C121.835 33.8253 122.893 34.178 123.967 34.178C124.795 34.178 125.592 34.0553 126.359 33.81C127.156 33.534 127.907 33.0893 128.613 32.476C129.318 31.832 129.947 30.958 130.499 29.854L131.419 30.222C131.051 31.2647 130.483 32.292 129.717 33.304C128.95 34.316 127.969 35.144 126.773 35.788C125.577 36.4013 124.181 36.708 122.587 36.708C120.44 36.708 118.569 36.2327 116.975 35.282C115.38 34.3007 114.153 32.9053 113.295 31.096C112.436 29.2867 112.007 27.14 112.007 24.656C112.007 21.9267 112.451 19.596 113.341 17.664C114.23 15.732 115.472 14.26 117.067 13.248C118.692 12.2053 120.563 11.684 122.679 11.684ZM147.378 11.684C148.267 11.684 149.018 11.868 149.632 12.236C150.276 12.604 150.751 13.0793 151.058 13.662C151.395 14.214 151.564 14.8427 151.564 15.548C151.564 16.4373 151.288 17.204 150.736 17.848C150.214 18.4613 149.509 18.768 148.62 18.768C147.853 18.768 147.194 18.538 146.642 18.078C146.12 17.618 145.86 16.9893 145.86 16.192C145.86 15.5173 146.028 14.95 146.366 14.49C146.734 13.9993 147.148 13.616 147.608 13.34C147.301 13.0947 146.933 12.9873 146.504 13.018C145.676 13.0487 144.909 13.3247 144.204 13.846C143.498 14.3367 142.9 14.9807 142.41 15.778C141.919 16.5447 141.536 17.3727 141.26 18.262C140.984 19.1513 140.846 19.9793 140.846 20.746V31.326C140.846 32.8287 141.26 33.8407 142.088 34.362C142.916 34.8527 144.066 35.098 145.538 35.098V36.064C144.832 36.0333 143.82 36.0027 142.502 35.972C141.214 35.9107 139.849 35.88 138.408 35.88C137.304 35.88 136.2 35.9107 135.096 35.972C133.992 36.0027 133.148 36.0333 132.566 36.064V35.098C133.762 35.098 134.605 34.868 135.096 34.408C135.617 33.948 135.878 33.074 135.878 31.786V17.342C135.878 15.962 135.648 14.95 135.188 14.306C134.728 13.6313 133.854 13.294 132.566 13.294V12.328C133.547 12.42 134.498 12.466 135.418 12.466C136.46 12.466 137.426 12.42 138.316 12.328C139.236 12.2053 140.079 12.0367 140.846 11.822V17.112C141.214 16.2227 141.704 15.364 142.318 14.536C142.931 13.708 143.667 13.0333 144.526 12.512C145.384 11.96 146.335 11.684 147.378 11.684ZM158.54 -6.4373e-06V31.786C158.54 33.074 158.785 33.948 159.276 34.408C159.797 34.868 160.656 35.098 161.852 35.098V36.064C161.331 36.0333 160.518 36.0027 159.414 35.972C158.31 35.9107 157.206 35.88 156.102 35.88C154.998 35.88 153.879 35.9107 152.744 35.972C151.64 36.0027 150.812 36.0333 150.26 36.064V35.098C151.456 35.098 152.299 34.868 152.79 34.408C153.311 33.948 153.572 33.074 153.572 31.786V5.51999C153.572 4.13999 153.342 3.12799 152.882 2.48399C152.422 1.80933 151.548 1.47199 150.26 1.47199V0.505993C151.241 0.597993 152.192 0.643993 153.112 0.643993C154.124 0.643993 155.09 0.597993 156.01 0.505993C156.93 0.383327 157.773 0.214661 158.54 -6.4373e-06ZM167.738 0.735995C168.688 0.735995 169.486 1.04266 170.13 1.65599C170.774 2.23866 171.096 2.97466 171.096 3.86399C171.096 4.75333 170.774 5.50466 170.13 6.11799C169.486 6.70066 168.688 6.99199 167.738 6.99199C166.787 6.99199 165.99 6.70066 165.346 6.11799C164.702 5.50466 164.38 4.75333 164.38 3.86399C164.38 2.97466 164.702 2.23866 165.346 1.65599C165.99 1.04266 166.787 0.735995 167.738 0.735995ZM170.498 11.822V31.786C170.498 33.074 170.743 33.948 171.234 34.408C171.755 34.868 172.614 35.098 173.81 35.098V36.064C173.288 36.0333 172.476 36.0027 171.372 35.972C170.298 35.9107 169.194 35.88 168.06 35.88C166.986 35.88 165.882 35.9107 164.748 35.972C163.613 36.0027 162.77 36.0333 162.218 36.064V35.098C163.414 35.098 164.257 34.868 164.748 34.408C165.269 33.948 165.53 33.074 165.53 31.786V17.342C165.53 15.962 165.3 14.95 164.84 14.306C164.38 13.6313 163.506 13.294 162.218 13.294V12.328C163.199 12.42 164.15 12.466 165.07 12.466C166.112 12.466 167.078 12.42 167.968 12.328C168.888 12.2053 169.731 12.0367 170.498 11.822ZM190.177 11.684C191.403 11.684 192.4 11.8527 193.167 12.19C193.964 12.4967 194.623 12.926 195.145 13.478C195.697 14.0607 196.08 14.812 196.295 15.732C196.54 16.652 196.663 17.894 196.663 19.458V31.786C196.663 33.074 196.908 33.948 197.399 34.408C197.92 34.868 198.779 35.098 199.975 35.098V36.064C199.453 36.0333 198.641 36.0027 197.537 35.972C196.433 35.9107 195.344 35.88 194.271 35.88C193.228 35.88 192.185 35.9107 191.143 35.972C190.131 36.0027 189.364 36.0333 188.843 36.064V35.098C189.885 35.098 190.621 34.868 191.051 34.408C191.48 33.948 191.695 33.074 191.695 31.786V18.17C191.695 17.2807 191.618 16.4833 191.465 15.778C191.311 15.042 190.989 14.4593 190.499 14.03C190.008 13.57 189.272 13.34 188.291 13.34C187.156 13.34 186.144 13.662 185.255 14.306C184.396 14.95 183.706 15.8393 183.185 16.974C182.694 18.078 182.449 19.32 182.449 20.7V31.786C182.449 33.074 182.663 33.948 183.093 34.408C183.553 34.868 184.289 35.098 185.301 35.098V36.064C184.81 36.0333 184.059 36.0027 183.047 35.972C182.065 35.9107 181.038 35.88 179.965 35.88C178.922 35.88 177.833 35.9107 176.699 35.972C175.564 36.0027 174.721 36.0333 174.169 36.064V35.098C175.365 35.098 176.208 34.868 176.699 34.408C177.22 33.948 177.481 33.074 177.481 31.786V17.342C177.481 15.962 177.251 14.95 176.791 14.306C176.331 13.6313 175.457 13.294 174.169 13.294V12.328C175.15 12.42 176.101 12.466 177.021 12.466C178.063 12.466 179.029 12.42 179.919 12.328C180.839 12.2053 181.682 12.0367 182.449 11.822V16.836C183.246 14.9347 184.335 13.6007 185.715 12.834C187.125 12.0673 188.613 11.684 190.177 11.684Z" fill="black"/>
</svg>
